<?xml version="1.0" encoding="UTF-8" standalone="no"?>
<!-- Created with Inkscape (http://www.inkscape.org/) -->

<svg
   width="33.881138mm"
   height="35.277779mm"
   viewBox="0 0 33.881139 35.27778"
   version="1.1"
   id="svg1"
   xml:space="preserve"
   inkscape:version="1.3-dev (77bc73e, 2022-05-18)"
   sodipodi:docname="airbyte_notext.svg"
   inkscape:export-filename="airbyte_notext.png"
   inkscape:export-xdpi="96"
   inkscape:export-ydpi="96"
   xmlns:inkscape="http://www.inkscape.org/namespaces/inkscape"
   xmlns:sodipodi="http://sodipodi.sourceforge.net/DTD/sodipodi-0.dtd"
   xmlns="http://www.w3.org/2000/svg"
   xmlns:svg="http://www.w3.org/2000/svg"><sodipodi:namedview
     id="namedview1"
     pagecolor="#000003"
     bordercolor="#000000"
     borderopacity="0.25"
     inkscape:showpageshadow="2"
     inkscape:pageopacity="0.0"
     inkscape:pagecheckerboard="true"
     inkscape:deskcolor="#d1d1d1"
     inkscape:document-units="mm"
     showgrid="false"
     inkscape:zoom="0.914906"
     inkscape:cx="278.17065"
     inkscape:cy="126.24248"
     inkscape:window-width="1988"
     inkscape:window-height="1205"
     inkscape:window-x="0"
     inkscape:window-y="25"
     inkscape:window-maximized="0"
     inkscape:current-layer="svg1" /><defs
     id="defs1"><clipPath
       clipPathUnits="userSpaceOnUse"
       id="clipPath3"><path
         d="M 0,100 H 364.848 V 0 H 0 Z"
         id="path3" /></clipPath></defs><g
     id="g2"
     transform="matrix(0.35277776,0,0,-0.35277778,0,35.277778)"><g
       id="g3"
       clip-path="url(#clipPath3)"><g
         id="g4"
         transform="translate(55.796,63.1797)"><path
           d="m 0,0 c -0.472,-0.362 -0.868,-0.814 -1.165,-1.329 h -10e-4 c -0.448,-0.775 -0.656,-1.666 -0.597,-2.56 0.059,-0.893 0.381,-1.749 0.926,-2.46 0.546,-0.71 1.289,-1.243 2.137,-1.531 0.848,-0.287 1.763,-0.317 2.628,-0.085 0.865,0.231 1.641,0.714 2.232,1.388 0.59,0.673 0.968,1.506 1.085,2.394 0.116,0.888 -0.033,1.791 -0.429,2.594 C 6.42,-0.786 5.795,-0.118 5.019,0.329 4.505,0.627 3.936,0.82 3.347,0.897 2.757,0.975 2.158,0.936 1.584,0.782 1.01,0.628 0.471,0.362 0,0 m 9.981,8.91 c 6.892,-3.98 9.272,-12.832 5.284,-19.721 l -27.441,-47.411 c -1.315,-2.274 -3.48,-3.934 -6.018,-4.614 -2.538,-0.68 -5.242,-0.325 -7.518,0.986 l 25.48,44.14 c -2.045,0.43 -3.971,1.299 -5.647,2.547 -1.676,1.247 -3.061,2.844 -4.06,4.679 -0.999,1.835 -1.588,3.865 -1.726,5.949 -0.138,2.085 0.178,4.175 0.927,6.125 0.748,1.951 1.911,3.716 3.408,5.173 1.497,1.458 3.292,2.573 5.262,3.269 C -0.098,10.728 2,10.988 4.08,10.794 6.16,10.6 8.174,9.958 9.981,8.91 M -23.048,24.687 C -12.425,36.707 5.168,40.233 19.631,33.295 38.846,24.076 45.857,0.593 35.395,-17.522 L 11.859,-58.228 c -1.315,-2.274 -3.479,-3.934 -6.017,-4.614 -2.538,-0.68 -5.242,-0.325 -7.519,0.986 l 28.494,49.291 c 7.59,13.147 2.513,30.189 -11.418,36.899 -10.454,5.034 -23.232,2.519 -30.954,-6.139 -4.26,-4.753 -6.651,-10.889 -6.731,-17.271 -0.08,-6.381 2.157,-12.576 6.297,-17.434 0.744,-0.871 1.544,-1.693 2.396,-2.46 l -16.634,-28.827 c -0.651,-1.127 -1.517,-2.114 -2.549,-2.907 -1.032,-0.792 -2.21,-1.373 -3.467,-1.71 -1.257,-0.337 -2.568,-0.423 -3.858,-0.253 -1.29,0.17 -2.534,0.592 -3.661,1.242 l 18.058,31.296 c -2.593,3.74 -4.456,7.937 -5.49,12.369 L -42.26,-26.976 c -1.315,-2.275 -3.479,-3.934 -6.017,-4.614 -2.538,-0.681 -5.242,-0.326 -7.519,0.986 l 28.617,49.568 c 1.191,2.035 2.574,3.952 4.131,5.723"
           style="fill:#ffffff;fill-opacity:1;fill-rule:evenodd;stroke:none"
           id="path4" /></g><g
         id="g5"
         transform="translate(55.796,63.1797)"><path
           d="m 0,0 c -0.472,-0.362 -0.868,-0.814 -1.165,-1.329 h -10e-4 c -0.448,-0.775 -0.656,-1.666 -0.597,-2.56 0.059,-0.893 0.381,-1.749 0.926,-2.46 0.546,-0.71 1.289,-1.243 2.137,-1.531 0.848,-0.287 1.763,-0.317 2.628,-0.085 0.865,0.231 1.641,0.714 2.232,1.388 0.59,0.673 0.968,1.506 1.085,2.394 0.116,0.888 -0.033,1.791 -0.429,2.594 C 6.42,-0.786 5.795,-0.118 5.019,0.329 4.505,0.627 3.936,0.82 3.347,0.897 2.757,0.975 2.158,0.936 1.584,0.782 1.01,0.628 0.471,0.362 0,0 m 9.981,8.91 c 6.892,-3.98 9.272,-12.832 5.284,-19.721 l -27.441,-47.411 c -1.315,-2.274 -3.48,-3.934 -6.018,-4.614 -2.538,-0.68 -5.242,-0.325 -7.518,0.986 l 25.48,44.14 c -2.045,0.43 -3.971,1.299 -5.647,2.547 -1.676,1.247 -3.061,2.844 -4.06,4.679 -0.999,1.835 -1.588,3.865 -1.726,5.949 -0.138,2.085 0.178,4.175 0.927,6.125 0.748,1.951 1.911,3.716 3.408,5.173 1.497,1.458 3.292,2.573 5.262,3.269 C -0.098,10.728 2,10.988 4.08,10.794 6.16,10.6 8.174,9.958 9.981,8.91 M -23.048,24.687 C -12.425,36.707 5.168,40.233 19.631,33.295 38.846,24.076 45.857,0.593 35.395,-17.522 L 11.859,-58.228 c -1.315,-2.274 -3.479,-3.934 -6.017,-4.614 -2.538,-0.68 -5.242,-0.325 -7.519,0.986 l 28.494,49.291 c 7.59,13.147 2.513,30.189 -11.418,36.899 -10.454,5.034 -23.232,2.519 -30.954,-6.139 -4.26,-4.753 -6.651,-10.889 -6.731,-17.271 -0.08,-6.381 2.157,-12.576 6.297,-17.434 0.744,-0.871 1.544,-1.693 2.396,-2.46 l -16.634,-28.827 c -0.651,-1.127 -1.517,-2.114 -2.549,-2.907 -1.032,-0.792 -2.21,-1.373 -3.467,-1.71 -1.257,-0.337 -2.568,-0.423 -3.858,-0.253 -1.29,0.17 -2.534,0.592 -3.661,1.242 l 18.058,31.296 c -2.593,3.74 -4.456,7.937 -5.49,12.369 L -42.26,-26.976 c -1.315,-2.275 -3.479,-3.934 -6.017,-4.614 -2.538,-0.681 -5.242,-0.326 -7.519,0.986 l 28.617,49.568 c 1.191,2.035 2.574,3.952 4.131,5.723"
           style="fill:#ffffff;fill-opacity:1;fill-rule:evenodd;stroke:none"
           id="path5" /></g><g
         id="g6"
         transform="translate(353.827,45.9999)" /></g></g></svg>
