<?xml version="1.0" encoding="UTF-8" standalone="no"?>
<!-- Created with Inkscape (http://www.inkscape.org/) -->

<svg
   width="128.71027mm"
   height="35.277779mm"
   viewBox="0 0 128.71027 35.27778"
   version="1.1"
   id="svg1"
   xml:space="preserve"
   inkscape:version="1.3-dev (77bc73e, 2022-05-18)"
   sodipodi:docname="airbyte_text.svg"
   inkscape:export-filename="airbyte_text.png"
   inkscape:export-xdpi="96"
   inkscape:export-ydpi="96"
   xmlns:inkscape="http://www.inkscape.org/namespaces/inkscape"
   xmlns:sodipodi="http://sodipodi.sourceforge.net/DTD/sodipodi-0.dtd"
   xmlns="http://www.w3.org/2000/svg"
   xmlns:svg="http://www.w3.org/2000/svg"><sodipodi:namedview
     id="namedview1"
     pagecolor="#000003"
     bordercolor="#000000"
     borderopacity="0.25"
     inkscape:showpageshadow="2"
     inkscape:pageopacity="0.0"
     inkscape:pagecheckerboard="true"
     inkscape:deskcolor="#d1d1d1"
     inkscape:document-units="mm"
     showgrid="false"
     inkscape:zoom="0.914906"
     inkscape:cx="278.17065"
     inkscape:cy="126.24248"
     inkscape:window-width="1988"
     inkscape:window-height="1205"
     inkscape:window-x="1079"
     inkscape:window-y="90"
     inkscape:window-maximized="0"
     inkscape:current-layer="svg1" /><defs
     id="defs1"><clipPath
       clipPathUnits="userSpaceOnUse"
       id="clipPath3"><path
         d="M 0,100 H 364.848 V 0 H 0 Z"
         id="path3" /></clipPath></defs><g
     id="g2"
     transform="matrix(0.35277776,0,0,-0.35277778,0,35.277778)"><g
       id="g3"
       clip-path="url(#clipPath3)"><g
         id="g4"
         transform="translate(55.796,63.1797)"><path
           d="m 0,0 c -0.472,-0.362 -0.868,-0.814 -1.165,-1.329 h -10e-4 c -0.448,-0.775 -0.656,-1.666 -0.597,-2.56 0.059,-0.893 0.381,-1.749 0.926,-2.46 0.546,-0.71 1.289,-1.243 2.137,-1.531 0.848,-0.287 1.763,-0.317 2.628,-0.085 0.865,0.231 1.641,0.714 2.232,1.388 0.59,0.673 0.968,1.506 1.085,2.394 0.116,0.888 -0.033,1.791 -0.429,2.594 C 6.42,-0.786 5.795,-0.118 5.019,0.329 4.505,0.627 3.936,0.82 3.347,0.897 2.757,0.975 2.158,0.936 1.584,0.782 1.01,0.628 0.471,0.362 0,0 m 9.981,8.91 c 6.892,-3.98 9.272,-12.832 5.284,-19.721 l -27.441,-47.411 c -1.315,-2.274 -3.48,-3.934 -6.018,-4.614 -2.538,-0.68 -5.242,-0.325 -7.518,0.986 l 25.48,44.14 c -2.045,0.43 -3.971,1.299 -5.647,2.547 -1.676,1.247 -3.061,2.844 -4.06,4.679 -0.999,1.835 -1.588,3.865 -1.726,5.949 -0.138,2.085 0.178,4.175 0.927,6.125 0.748,1.951 1.911,3.716 3.408,5.173 1.497,1.458 3.292,2.573 5.262,3.269 C -0.098,10.728 2,10.988 4.08,10.794 6.16,10.6 8.174,9.958 9.981,8.91 M -23.048,24.687 C -12.425,36.707 5.168,40.233 19.631,33.295 38.846,24.076 45.857,0.593 35.395,-17.522 L 11.859,-58.228 c -1.315,-2.274 -3.479,-3.934 -6.017,-4.614 -2.538,-0.68 -5.242,-0.325 -7.519,0.986 l 28.494,49.291 c 7.59,13.147 2.513,30.189 -11.418,36.899 -10.454,5.034 -23.232,2.519 -30.954,-6.139 -4.26,-4.753 -6.651,-10.889 -6.731,-17.271 -0.08,-6.381 2.157,-12.576 6.297,-17.434 0.744,-0.871 1.544,-1.693 2.396,-2.46 l -16.634,-28.827 c -0.651,-1.127 -1.517,-2.114 -2.549,-2.907 -1.032,-0.792 -2.21,-1.373 -3.467,-1.71 -1.257,-0.337 -2.568,-0.423 -3.858,-0.253 -1.29,0.17 -2.534,0.592 -3.661,1.242 l 18.058,31.296 c -2.593,3.74 -4.456,7.937 -5.49,12.369 L -42.26,-26.976 c -1.315,-2.275 -3.479,-3.934 -6.017,-4.614 -2.538,-0.681 -5.242,-0.326 -7.519,0.986 l 28.617,49.568 c 1.191,2.035 2.574,3.952 4.131,5.723"
           style="fill:#ffffff;fill-opacity:1;fill-rule:evenodd;stroke:none"
           id="path4" /></g><g
         id="g5"
         transform="translate(55.796,63.1797)"><path
           d="m 0,0 c -0.472,-0.362 -0.868,-0.814 -1.165,-1.329 h -10e-4 c -0.448,-0.775 -0.656,-1.666 -0.597,-2.56 0.059,-0.893 0.381,-1.749 0.926,-2.46 0.546,-0.71 1.289,-1.243 2.137,-1.531 0.848,-0.287 1.763,-0.317 2.628,-0.085 0.865,0.231 1.641,0.714 2.232,1.388 0.59,0.673 0.968,1.506 1.085,2.394 0.116,0.888 -0.033,1.791 -0.429,2.594 C 6.42,-0.786 5.795,-0.118 5.019,0.329 4.505,0.627 3.936,0.82 3.347,0.897 2.757,0.975 2.158,0.936 1.584,0.782 1.01,0.628 0.471,0.362 0,0 m 9.981,8.91 c 6.892,-3.98 9.272,-12.832 5.284,-19.721 l -27.441,-47.411 c -1.315,-2.274 -3.48,-3.934 -6.018,-4.614 -2.538,-0.68 -5.242,-0.325 -7.518,0.986 l 25.48,44.14 c -2.045,0.43 -3.971,1.299 -5.647,2.547 -1.676,1.247 -3.061,2.844 -4.06,4.679 -0.999,1.835 -1.588,3.865 -1.726,5.949 -0.138,2.085 0.178,4.175 0.927,6.125 0.748,1.951 1.911,3.716 3.408,5.173 1.497,1.458 3.292,2.573 5.262,3.269 C -0.098,10.728 2,10.988 4.08,10.794 6.16,10.6 8.174,9.958 9.981,8.91 M -23.048,24.687 C -12.425,36.707 5.168,40.233 19.631,33.295 38.846,24.076 45.857,0.593 35.395,-17.522 L 11.859,-58.228 c -1.315,-2.274 -3.479,-3.934 -6.017,-4.614 -2.538,-0.68 -5.242,-0.325 -7.519,0.986 l 28.494,49.291 c 7.59,13.147 2.513,30.189 -11.418,36.899 -10.454,5.034 -23.232,2.519 -30.954,-6.139 -4.26,-4.753 -6.651,-10.889 -6.731,-17.271 -0.08,-6.381 2.157,-12.576 6.297,-17.434 0.744,-0.871 1.544,-1.693 2.396,-2.46 l -16.634,-28.827 c -0.651,-1.127 -1.517,-2.114 -2.549,-2.907 -1.032,-0.792 -2.21,-1.373 -3.467,-1.71 -1.257,-0.337 -2.568,-0.423 -3.858,-0.253 -1.29,0.17 -2.534,0.592 -3.661,1.242 l 18.058,31.296 c -2.593,3.74 -4.456,7.937 -5.49,12.369 L -42.26,-26.976 c -1.315,-2.275 -3.479,-3.934 -6.017,-4.614 -2.538,-0.681 -5.242,-0.326 -7.519,0.986 l 28.617,49.568 c 1.191,2.035 2.574,3.952 4.131,5.723"
           style="fill:#ffffff;fill-opacity:1;fill-rule:evenodd;stroke:none"
           id="path5" /></g><g
         id="g6"
         transform="translate(353.827,45.9999)"><path
           d="M 0,0 C -0.56,1.245 -1.363,2.303 -2.409,3.172 -3.932,4.437 -5.761,5.07 -7.893,5.07 -10.05,5.07 -11.925,4.426 -13.518,3.137 -14.587,2.259 -15.406,1.214 -15.975,0 Z m -12.921,-12.191 c -1.687,1.218 -2.847,2.8 -3.48,4.746 h 27.422 v 3.058 c 0,3.539 -0.797,6.68 -2.391,9.422 -1.594,2.742 -3.773,4.899 -6.539,6.469 -2.742,1.57 -5.883,2.355 -9.422,2.355 -3.562,0 -6.75,-0.796 -9.562,-2.39 -2.789,-1.571 -4.993,-3.727 -6.61,-6.469 -1.617,-2.719 -2.426,-5.824 -2.426,-9.316 0,-3.539 0.844,-6.704 2.532,-9.493 1.687,-2.765 4.019,-4.945 6.996,-6.539 2.976,-1.57 6.41,-2.355 10.301,-2.355 2.437,0 4.98,0.398 7.628,1.195 2.672,0.797 5.368,2.262 8.086,4.395 l -6.117,7.312 c -1.312,-1.242 -2.777,-2.261 -4.394,-3.058 -1.594,-0.774 -3.61,-1.161 -6.047,-1.161 -2.274,0 -4.266,0.61 -5.977,1.829 m -43.664,25.347 h 5.801 v 8.789 h 10.125 v -8.789 h 8.543 V 4.367 h -8.543 V -8.57 c 0,-1.664 0.527,-2.977 1.582,-3.938 1.078,-0.937 2.438,-1.406 4.078,-1.406 1.219,0 2.473,0.269 3.762,0.809 v -8.297 c -2.227,-0.868 -4.418,-1.301 -6.574,-1.301 -4.172,0 -7.383,1.113 -9.633,3.34 -2.227,2.25 -3.34,5.461 -3.34,9.633 V 4.367 h -5.801 z m -23.449,-17.191 -8.227,17.191 h -10.582 l 16.383,-33.398 -8.015,-19.336 h 10.652 l 21.867,52.734 h -10.687 l -9.493,-22.922 c -0.234,1.149 -0.515,2.204 -0.843,3.164 -0.328,0.961 -0.68,1.817 -1.055,2.567 m -35.324,-9.879 c 2.578,0 4.711,0.902 6.398,2.707 1.688,1.805 2.531,4.066 2.531,6.785 0,2.719 -0.843,4.981 -2.531,6.785 -1.687,1.805 -3.82,2.707 -6.398,2.707 -2.578,0 -4.711,-0.902 -6.399,-2.707 -1.687,-1.804 -2.531,-4.066 -2.531,-6.785 0,-2.719 0.844,-4.98 2.531,-6.785 1.688,-1.805 3.821,-2.707 6.399,-2.707 M -135.413,-22 v 52.734 h 10.125 V 9.676 c 1.477,1.312 3.164,2.332 5.063,3.058 1.898,0.75 3.949,1.125 6.152,1.125 3.305,0 6.246,-0.796 8.824,-2.39 2.578,-1.571 4.606,-3.739 6.082,-6.504 1.477,-2.742 2.215,-5.871 2.215,-9.387 0,-3.516 -0.738,-6.656 -2.215,-9.422 -1.476,-2.742 -3.504,-4.91 -6.082,-6.504 -2.578,-1.57 -5.519,-2.355 -8.824,-2.355 -2.274,0 -4.395,0.387 -6.363,1.16 -1.969,0.797 -3.692,1.91 -5.168,3.34 L -125.85,-22 Z m -28.476,35.156 V -22 h 10.124 v 15.504 c 0,3.703 0.833,6.551 2.497,8.543 1.664,2.015 3.855,3.023 6.574,3.023 1.312,0 2.648,-0.222 4.008,-0.668 l 1.406,8.754 c -1.617,0.469 -3.188,0.703 -4.711,0.703 -4.477,0 -7.992,-1.91 -10.547,-5.73 v 5.027 z m -18.704,0 h 10.125 V -22 h -10.125 z m -0.562,11.953 c 0,1.688 0.516,3.047 1.547,4.078 1.031,1.032 2.39,1.547 4.078,1.547 1.687,0 3.047,-0.515 4.078,-1.547 1.031,-1.031 1.547,-2.39 1.547,-4.078 0,-1.687 -0.516,-3.047 -1.547,-4.078 -1.031,-1.031 -2.391,-1.547 -4.078,-1.547 -1.688,0 -3.047,0.516 -4.078,1.547 -1.031,1.031 -1.547,2.391 -1.547,4.078 m -22.922,-25.804 c -1.406,4.125 -2.66,7.816 -3.762,11.074 -1.101,3.258 -2.226,6.621 -3.375,10.09 -1.148,-3.469 -2.285,-6.832 -3.41,-10.09 -1.101,-3.258 -2.355,-6.949 -3.762,-11.074 z m -33.75,-21.305 20.566,52.734 h 12.059 L -186.636,-22 h -11.496 l -4.429,11.812 h -21.34 L -228.331,-22 Z"
           style="fill:#ffffff;fill-opacity:1;fill-rule:evenodd;stroke:none"
           id="path6" /></g></g></g></svg>
