<?xml version="1.0" encoding="UTF-8" standalone="no"?>
<!-- Created with Inkscape (http://www.inkscape.org/) -->

<svg
   width="149.10188mm"
   height="103.44185mm"
   viewBox="0 0 149.10188 103.44185"
   version="1.1"
   id="svg1"
   xml:space="preserve"
   inkscape:version="1.3-dev (77bc73e, 2022-05-18)"
   sodipodi:docname="inovex_logo.svg"
   inkscape:export-filename="inovex_logo.png"
   inkscape:export-xdpi="42.588329"
   inkscape:export-ydpi="42.588329"
   xmlns:inkscape="http://www.inkscape.org/namespaces/inkscape"
   xmlns:sodipodi="http://sodipodi.sourceforge.net/DTD/sodipodi-0.dtd"
   xmlns="http://www.w3.org/2000/svg"
   xmlns:svg="http://www.w3.org/2000/svg"><sodipodi:namedview
     id="namedview1"
     pagecolor="#010000"
     bordercolor="#000000"
     borderopacity="0.25"
     inkscape:showpageshadow="2"
     inkscape:pageopacity="0.0"
     inkscape:pagecheckerboard="true"
     inkscape:deskcolor="#d1d1d1"
     inkscape:document-units="mm"
     showgrid="false"
     inkscape:zoom="0.914906"
     inkscape:cx="237.72934"
     inkscape:cy="294.56578"
     inkscape:window-width="1390"
     inkscape:window-height="1205"
     inkscape:window-x="0"
     inkscape:window-y="25"
     inkscape:window-maximized="0"
     inkscape:current-layer="layer1" /><defs
     id="defs1"><clipPath
       clipPathUnits="userSpaceOnUse"
       id="clipPath3"><path
         d="M 0,293.221 H 422.651 V 0 H 0 Z"
         id="path3" /></clipPath><clipPath
       clipPathUnits="userSpaceOnUse"
       id="clipPath13"><path
         d="m 192.824,209.912 h 98.288 v -82.645 h -98.288 z"
         id="path13" /></clipPath><clipPath
       clipPathUnits="userSpaceOnUse"
       id="clipPath14"><path
         d="m 192.824,183.794 15.012,-56.491 c 1.75,-0.188 3.565,0.366 4.901,1.713 l 76.695,77.31 c 0.998,1.006 1.54,2.279 1.68,3.586 l -56.489,-15.011 z"
         id="path14" /></clipPath><linearGradient
       x1="0"
       y1="0"
       x2="1"
       y2="0"
       gradientUnits="userSpaceOnUse"
       gradientTransform="matrix(-65.221085,-18.508688,-18.508688,65.221085,264.12625,173.41966)"
       spreadMethod="pad"
       id="linearGradient16"><stop
         style="stop-opacity:1;stop-color:#ffffff"
         offset="0"
         id="stop14" /><stop
         style="stop-opacity:1;stop-color:#ffffff"
         offset="0.308622"
         id="stop15" /><stop
         style="stop-opacity:1;stop-color:#24209d"
         offset="1"
         id="stop16" /></linearGradient><clipPath
       clipPathUnits="userSpaceOnUse"
       id="clipPath24"><path
         d="m 125.193,225.592 h 82.643 v -98.289 h -82.643 z"
         id="path24" /></clipPath><clipPath
       clipPathUnits="userSpaceOnUse"
       id="clipPath25"><path
         d="m 207.836,127.303 -15.012,56.491 -11.107,41.798 -56.488,-15.011 c -0.189,-1.751 0.365,-3.566 1.712,-4.903 l 12.669,-12.567 64.642,-64.128 c 1.005,-0.998 2.277,-1.54 3.584,-1.68"
         id="path25" /></clipPath><linearGradient
       x1="0"
       y1="0"
       x2="1"
       y2="0"
       gradientUnits="userSpaceOnUse"
       gradientTransform="matrix(-15.69771,61.628048,61.628048,15.69771,169.80551,155.30336)"
       spreadMethod="pad"
       id="linearGradient29"><stop
         style="stop-opacity:1;stop-color:#ffffff"
         offset="0"
         id="stop25" /><stop
         style="stop-opacity:1;stop-color:#ffffff"
         offset="0.308622"
         id="stop26" /><stop
         style="stop-opacity:1;stop-color:#ffffff"
         offset="0.43941098"
         id="stop27" /><stop
         style="stop-opacity:1;stop-color:#24209d"
         offset="0.968771"
         id="stop28" /><stop
         style="stop-opacity:1;stop-color:#24209d"
         offset="1"
         id="stop29" /></linearGradient><clipPath
       clipPathUnits="userSpaceOnUse"
       id="clipPath37"><path
         d="m 125.229,293.221 h 98.287 v -82.64 h -98.287 z"
         id="path37" /></clipPath><clipPath
       clipPathUnits="userSpaceOnUse"
       id="clipPath38"><path
         d="m 181.717,225.592 41.799,11.107 -15.011,56.487 c -1.75,0.188 -3.565,-0.366 -4.902,-1.713 l -30.274,-30.517 -46.422,-46.794 c -0.997,-1.005 -1.538,-2.276 -1.678,-3.581 z"
         id="path38" /></clipPath><linearGradient
       x1="0"
       y1="0"
       x2="1"
       y2="0"
       gradientUnits="userSpaceOnUse"
       gradientTransform="matrix(62.209446,16.279108,16.279108,-62.209446,167.633,252.29207)"
       spreadMethod="pad"
       id="linearGradient42"><stop
         style="stop-opacity:1;stop-color:#ffffff"
         offset="0"
         id="stop38" /><stop
         style="stop-opacity:1;stop-color:#ffffff"
         offset="0.308622"
         id="stop39" /><stop
         style="stop-opacity:1;stop-color:#ffffff"
         offset="0.33419504"
         id="stop40" /><stop
         style="stop-opacity:1;stop-color:#096a34"
         offset="0.899345"
         id="stop41" /><stop
         style="stop-opacity:1;stop-color:#096a34"
         offset="1"
         id="stop42" /></linearGradient><clipPath
       clipPathUnits="userSpaceOnUse"
       id="clipPath50"><path
         d="m 208.505,293.186 h 82.642 v -98.285 h -82.642 z"
         id="path50" /></clipPath><clipPath
       clipPathUnits="userSpaceOnUse"
       id="clipPath51"><path
         d="m 289.398,214.811 -77.31,76.696 c -1.005,0.997 -2.276,1.539 -3.583,1.679 l 15.011,-56.487 11.107,-41.798 56.489,15.011 c 0.187,1.75 -0.367,3.564 -1.714,4.899"
         id="path51" /></clipPath><linearGradient
       x1="0"
       y1="0"
       x2="1"
       y2="0"
       gradientUnits="userSpaceOnUse"
       gradientTransform="matrix(18.604694,-70.348999,-70.348999,-18.604694,243.87747,274.77222)"
       spreadMethod="pad"
       id="linearGradient54"><stop
         style="stop-opacity:1;stop-color:#ffffff"
         offset="0"
         id="stop51" /><stop
         style="stop-opacity:1;stop-color:#ffffff"
         offset="0.428061"
         id="stop52" /><stop
         style="stop-opacity:1;stop-color:#ffffff"
         offset="0.66136617"
         id="stop53" /><stop
         style="stop-opacity:1;stop-color:#24209d"
         offset="1"
         id="stop54" /></linearGradient></defs><g
     inkscape:label="Layer 1"
     inkscape:groupmode="layer"
     id="layer1"
     transform="translate(-12.784992,-71.04101)"><g
       id="g3"
       clip-path="url(#clipPath3)"
       transform="matrix(0.35277777,0,0,-0.35277777,12.784992,174.48286)"><g
         id="g4"
         transform="translate(12.5655,69.369)"><path
           d="m 0,0 h 10.862 v -66.592 c 0,-1.105 -0.896,-2 -2.001,-2 H 0 c -1.105,0 -2.001,0.895 -2.001,2 V -2 c 0,1.105 0.896,2 2.001,2 m -4.279,21.224 c 0,4.53 3.752,8.153 8.709,8.153 4.958,0 8.71,-3.494 8.71,-7.894 0,-4.659 -3.618,-8.283 -8.71,-8.283 -4.957,0 -8.709,3.495 -8.709,8.024"
           style="fill:#ffffff;fill-opacity:1;fill-rule:nonzero;stroke:none"
           id="path4" /></g><g
         id="g5"
         transform="translate(110.6907,40.2495)"><path
           d="m 0,0 v -37.473 c 0,-1.104 -0.896,-2 -2.001,-2 h -8.861 c -1.105,0 -2.001,0.896 -2.001,2 v 36.05 c 0,13.459 -6.968,20.06 -19.161,20.06 -13.667,0 -22.511,-7.895 -22.511,-22.778 v -33.332 c 0,-1.104 -0.896,-2 -2.001,-2 h -8.861 c -1.105,0 -2.001,0.896 -2.001,2 V 27.12 c 0,1.104 0.896,2 2.001,2 h 8.325 c 1.105,0 2.001,-0.896 2.001,-2 v -8.354 c 5.226,6.988 14.337,11.001 25.593,11.001 C -12.193,29.767 0,20.19 0,0"
           style="fill:#ffffff;fill-opacity:1;fill-rule:nonzero;stroke:none"
           id="path5" /></g><g
         id="g6"
         transform="translate(183.4055,35.0725)"><path
           d="m 0,0 c 0,14.624 -10.183,24.072 -23.85,24.072 -13.668,0 -23.985,-9.448 -23.985,-24.072 0,-14.624 10.317,-24.201 23.985,-24.201 C -10.183,-24.201 0,-14.624 0,0 m -60.832,0 c 0,20.448 15.677,34.944 36.982,34.944 21.304,0 36.847,-14.496 36.847,-34.944 0,-20.447 -15.543,-35.073 -36.847,-35.073 -21.305,0 -36.982,14.626 -36.982,35.073"
           style="fill:#ffffff;fill-opacity:1;fill-rule:nonzero;stroke:none"
           id="path6" /></g><g
         id="g7"
         transform="translate(272.76,67.2363)"><path
           d="m 0,0 -30.4,-65.303 c -0.328,-0.705 -1.036,-1.156 -1.814,-1.156 H -43.15 c -0.779,0 -1.486,0.451 -1.815,1.156 L -75.365,0 c -0.462,0.994 0.264,2.133 1.361,2.133 h 10.122 c 0.784,0 1.496,-0.458 1.821,-1.172 l 24.516,-53.832 25.062,53.847 c 0.328,0.706 1.036,1.157 1.814,1.157 h 9.308 C -0.264,2.133 0.463,0.994 0,0"
           style="fill:#ffffff;fill-opacity:1;fill-rule:nonzero;stroke:none"
           id="path7" /></g><g
         id="g8"
         transform="translate(286.4513,34.0797)"><path
           d="M 0,0 0.094,-1.291 42.497,9.635 C 43.75,9.958 44.464,11.323 43.95,12.51 40.338,20.86 31.942,26.173 21.382,25.413 7.884,24.443 -1.048,14.328 0,0 m 49.22,-14.676 4.755,-4.735 c 0.747,-0.744 0.786,-1.938 0.1,-2.738 C 48.25,-28.944 39.258,-32.991 28.266,-33.781 5.414,-35.424 -10.889,-21.933 -12.381,-1.539 -13.864,18.727 0.036,34.389 20.617,35.869 39.417,37.22 55.098,25.89 57.746,6.615 57.886,5.6 57.268,4.634 56.277,4.373 L 2.465,-9.814 c 4.298,-9.164 13.515,-13.951 25.409,-13.096 7.536,0.542 13.802,3.247 18.49,8.19 0.773,0.814 2.061,0.836 2.856,0.044"
           style="fill:#ffffff;fill-opacity:1;fill-rule:nonzero;stroke:none"
           id="path8" /></g><g
         id="g9"
         transform="translate(406.8032,1.8422)"><path
           d="M 0,0 -22.662,25.207 -45.634,-0.015 c -0.609,-0.669 -1.472,-1.05 -2.377,-1.05 H -59.69 c -1.307,0 -1.99,1.553 -1.105,2.515 l 29.951,32.557 -28.418,31.007 c -0.882,0.962 -0.199,2.513 1.106,2.513 h 11.69 c 0.904,0 1.766,-0.381 2.375,-1.049 L -22.508,42.807 -1.08,66.47 c 0.61,0.673 1.475,1.057 2.383,1.057 h 11.362 c 1.308,0 1.99,-1.555 1.105,-2.516 L -14.789,34.007 15.444,1.455 c 0.892,-0.96 0.211,-2.52 -1.1,-2.52 H 2.391 C 1.479,-1.065 0.61,-0.678 0,0"
           style="fill:#ffffff;fill-opacity:1;fill-rule:nonzero;stroke:none"
           id="path9" /></g><g
         id="g10"
         transform="translate(22.8687,57.938)"><path
           d="m 0,0 h -20.868 c -1.105,0 -2.001,0.896 -2.001,2.001 V 9.39 c 0,1.105 0.896,2.001 2.001,2.001 H 0 Z"
           style="fill:#ffffff;fill-opacity:1;fill-rule:nonzero;stroke:none"
           id="path10" /></g><g
         id="g11"
         transform="translate(192.8244,183.7936)"><path
           d="m 0,0 15.011,-56.491 c 1.751,-0.187 3.565,0.366 4.902,1.714 l 76.695,77.31 c 0.998,1.006 1.539,2.278 1.679,3.585 L 41.798,11.107 Z"
           style="fill:#424bff;fill-opacity:1;fill-rule:nonzero;stroke:none"
           id="path11" /></g><g
         id="g12"><g
           id="g13" /><g
           id="g21"><g
             clip-path="url(#clipPath13)"
             opacity="0.300003"
             id="g20"><g
               id="g19"><g
                 clip-path="url(#clipPath14)"
                 id="g18"><g
                   id="g17"><g
                     id="g16"><path
                       d="m 192.824,183.794 15.012,-56.491 c 1.75,-0.188 3.565,0.366 4.901,1.713 l 76.695,77.31 c 0.998,1.006 1.54,2.279 1.68,3.586 l -56.489,-15.011 z"
                       style="fill:url(#linearGradient16);stroke:none"
                       id="path16" /></g></g></g></g></g></g></g><g
         id="g22"
         transform="translate(207.8356,127.3029)"><path
           d="M 0,0 -15.011,56.491 -26.118,98.289 -82.607,83.278 c -0.188,-1.751 0.366,-3.566 1.713,-4.903 L -68.226,65.808 -3.584,1.68 C -2.578,0.682 -1.307,0.141 0,0"
           style="fill:#28a4a4;fill-opacity:1;fill-rule:nonzero;stroke:none"
           id="path22" /></g><g
         id="g23"><g
           id="g24" /><g
           id="g34"><g
             clip-path="url(#clipPath24)"
             opacity="0.149994"
             id="g33"><g
               id="g32"><g
                 clip-path="url(#clipPath25)"
                 id="g31"><g
                   id="g30"><g
                     id="g29"><path
                       d="m 207.836,127.303 -15.012,56.491 -11.107,41.798 -56.488,-15.011 c -0.189,-1.751 0.365,-3.566 1.712,-4.903 l 12.669,-12.567 64.642,-64.128 c 1.005,-0.998 2.277,-1.54 3.584,-1.68"
                       style="fill:url(#linearGradient29);stroke:none"
                       id="path29" /></g></g></g></g></g></g></g><g
         id="g35"
         transform="translate(181.7173,225.5919)"><path
           d="m 0,0 41.798,11.107 -15.01,56.487 c -1.751,0.188 -3.566,-0.366 -4.902,-1.713 L -8.388,35.364 -54.81,-11.43 c -0.997,-1.005 -1.538,-2.276 -1.679,-3.581 z"
           style="fill:#80f979;fill-opacity:1;fill-rule:nonzero;stroke:none"
           id="path35" /></g><g
         id="g36"><g
           id="g37" /><g
           id="g47"><g
             clip-path="url(#clipPath37)"
             opacity="0.320007"
             id="g46"><g
               id="g45"><g
                 clip-path="url(#clipPath38)"
                 id="g44"><g
                   id="g43"><g
                     id="g42"><path
                       d="m 181.717,225.592 41.799,11.107 -15.011,56.487 c -1.75,0.188 -3.565,-0.366 -4.902,-1.713 l -30.274,-30.517 -46.422,-46.794 c -0.997,-1.005 -1.538,-2.276 -1.678,-3.581 z"
                       style="fill:url(#linearGradient42);stroke:none"
                       id="path42" /></g></g></g></g></g></g></g><g
         id="g48"
         transform="translate(289.3984,214.8112)"><path
           d="m 0,0 -77.31,76.696 c -1.005,0.997 -2.277,1.538 -3.583,1.678 l 15.01,-56.486 11.107,-41.799 56.489,15.012 C 1.901,-3.149 1.347,-1.335 0,0"
           style="fill:#31adeb;fill-opacity:1;fill-rule:nonzero;stroke:none"
           id="path48" /></g><g
         id="g49"><g
           id="g50" /><g
           id="g59"><g
             clip-path="url(#clipPath50)"
             opacity="0.25"
             id="g58"><g
               id="g57"><g
                 clip-path="url(#clipPath51)"
                 id="g56"><g
                   id="g55"><g
                     id="g54"><path
                       d="m 289.398,214.811 -77.31,76.696 c -1.005,0.997 -2.276,1.539 -3.583,1.679 l 15.011,-56.487 11.107,-41.798 56.489,15.011 c 0.187,1.75 -0.367,3.564 -1.714,4.899"
                       style="fill:url(#linearGradient54);stroke:none"
                       id="path54" /></g></g></g></g></g></g></g></g></g></svg>
