<?xml version="1.0" encoding="UTF-8" standalone="no"?>
<!-- Created with Inkscape (http://www.inkscape.org/) -->

<svg
   width="58.666874mm"
   height="12.116506mm"
   viewBox="0 0 58.666874 12.116506"
   version="1.1"
   id="svg1"
   xml:space="preserve"
   inkscape:version="1.3-dev (77bc73e, 2022-05-18)"
   sodipodi:docname="lightdash_text.svg"
   inkscape:export-filename="lightdash_text.png"
   inkscape:export-xdpi="278.81"
   inkscape:export-ydpi="278.81"
   xmlns:inkscape="http://www.inkscape.org/namespaces/inkscape"
   xmlns:sodipodi="http://sodipodi.sourceforge.net/DTD/sodipodi-0.dtd"
   xmlns="http://www.w3.org/2000/svg"
   xmlns:svg="http://www.w3.org/2000/svg"><sodipodi:namedview
     id="namedview1"
     pagecolor="#050f0d"
     bordercolor="#000000"
     borderopacity="0.25"
     inkscape:showpageshadow="2"
     inkscape:pageopacity="0.0"
     inkscape:pagecheckerboard="true"
     inkscape:deskcolor="#d1d1d1"
     inkscape:document-units="mm"
     showgrid="false"
     inkscape:zoom="0.914906"
     inkscape:cx="-48.638877"
     inkscape:cy="27.871716"
     inkscape:window-width="1390"
     inkscape:window-height="1205"
     inkscape:window-x="0"
     inkscape:window-y="25"
     inkscape:window-maximized="0"
     inkscape:current-layer="layer1" /><defs
     id="defs1"><clipPath
       clipPathUnits="userSpaceOnUse"
       id="clipPath3"><path
         d="M 0,34.346 H 166.3 V 0 H 0 Z"
         id="path3" /></clipPath></defs><g
     inkscape:label="Layer 1"
     inkscape:groupmode="layer"
     id="layer1"
     transform="translate(-15.057508,-142.44174)"><g
       id="g3"
       clip-path="url(#clipPath3)"
       transform="matrix(0.35277777,0,0,-0.35277777,15.057508,154.55825)"><g
         id="g4"
         transform="translate(0,19.6274)"><path
           d="m 0,0 c 0.554,3.666 1.147,7.326 1.649,10.999 0.408,2.979 0.359,2.986 3.355,2.987 1.832,0 3.665,0.015 5.497,-0.005 1.826,-0.021 2.261,-0.626 1.726,-2.401 -0.541,-1.792 -1.114,-3.574 -1.737,-5.566 2.005,0 3.768,0.027 5.53,-0.008 1.707,-0.033 2.204,-0.873 1.337,-2.361 -3.017,-5.177 -6.048,-10.346 -9.16,-15.467 -0.307,-0.504 -1.203,-0.65 -1.826,-0.962 -0.225,0.664 -0.748,1.388 -0.627,1.982 0.619,3.03 1.403,6.026 2.2,9.325 -2.038,0 -3.909,-0.108 -5.756,0.052 C 1.433,-1.359 0.728,-0.715 0,-0.333 0,-0.222 0,-0.111 0,0"
           style="fill:#ffffff;fill-opacity:1;fill-rule:nonzero;stroke:none"
           id="path4" /></g><g
         id="g5"
         transform="translate(74.2367,24.481)"><path
           d="m 0,0 c 1.968,1.646 3.911,1.816 5.935,1.484 2.772,-0.454 4.896,-2.601 5.049,-5.608 0.194,-3.808 0.047,-7.634 0.047,-11.563 H 6.236 c 0,0.765 0.002,1.566 0,2.367 -0.008,2.497 0.048,4.997 -0.048,7.49 C 6.114,-3.899 4.875,-2.799 3.104,-2.862 1.363,-2.923 0.109,-4.134 0.079,-5.966 0.026,-9.171 0.064,-12.378 0.064,-15.691 h -4.73 V 9.749 H 0 Z"
           style="fill:#ffffff;fill-opacity:1;fill-rule:nonzero;stroke:none"
           id="path5" /></g><g
         id="g6"
         transform="translate(150.4721,34.2799)"><path
           d="m 0,0 h 4.767 v -9.197 c 1.568,0.362 2.976,0.923 4.401,0.969 3.634,0.118 6.286,-2.086 6.529,-5.699 0.256,-3.799 0.057,-7.629 0.057,-11.557 h -4.827 c 0,3.265 0.046,6.467 -0.015,9.667 -0.045,2.35 -1.791,3.686 -3.879,3.037 -1.511,-0.468 -2.225,-1.58 -2.234,-3.14 -0.014,-2.552 -0.008,-5.104 -0.01,-7.656 -10e-4,-0.599 0,-1.197 0,-1.908 H 0 Z"
           style="fill:#ffffff;fill-opacity:1;fill-rule:nonzero;stroke:none"
           id="path6" /></g><g
         id="g7"
         transform="translate(24.8176,8.9474)"><path
           d="M 0,0 V 24.467 H 5.029 V 4.37 H 15.783 V 0 Z"
           style="fill:#ffffff;fill-opacity:1;fill-rule:nonzero;stroke:none"
           id="path7" /></g><g
         id="g8"
         transform="translate(143.7277,20.3041)"><path
           d="M 0,0 C -0.368,1.656 -1.34,2.357 -2.825,2.012 -3.36,1.888 -4.096,1.329 -4.166,0.879 -4.233,0.45 -3.654,-0.355 -3.18,-0.542 c 1.642,-0.648 3.412,-0.979 5.042,-1.651 2.767,-1.139 3.683,-3.32 2.732,-6.051 -0.929,-2.666 -4.112,-4.132 -7.979,-3.676 -3.683,0.435 -5.636,2.206 -5.911,5.485 1.312,0.076 2.624,0.199 3.935,0.195 0.311,-10e-4 0.612,-0.442 0.933,-0.658 0.69,-0.465 1.381,-1.263 2.087,-1.279 0.764,-0.017 1.935,0.513 2.234,1.137 0.546,1.141 -0.574,1.597 -1.505,1.884 -1.482,0.455 -3.017,0.764 -4.459,1.319 -3.527,1.355 -4.162,5.804 -1.219,8.185 C -3.162,7.688 3.625,5.589 4.646,0.356 3.134,0.24 1.649,0.126 0,0"
           style="fill:#ffffff;fill-opacity:1;fill-rule:nonzero;stroke:none"
           id="path8" /></g><g
         id="g9"
         transform="translate(97.8206,25.6816)"><path
           d="m 0,0 v -4.024 h -3.967 c 0,-2.434 -0.116,-4.704 0.039,-6.955 0.11,-1.596 1.151,-2.048 4.01,-2.003 0,-0.635 0,-1.271 0,-1.906 0,-0.661 0,-1.321 0,-2.13 -2.305,-0.491 -4.464,-0.493 -6.514,0.602 -1.754,0.938 -2.389,2.552 -2.407,4.444 -0.025,2.548 -0.006,5.096 -0.006,7.821 h -2.947 v 4.176 c 0.906,0.049 1.826,0.1 2.928,0.161 v 5.405 h 4.87 V 0.25 C -2.612,0.163 -1.341,0.084 0,0"
           style="fill:#ffffff;fill-opacity:1;fill-rule:nonzero;stroke:none"
           id="path9" /></g><path
         d="m 42.399,25.837 h 4.544 v -16.9 h -4.544 z"
         style="fill:#ffffff;fill-opacity:1;fill-rule:nonzero;stroke:none"
         id="path10" /><g
         id="g10"
         transform="translate(47.6078,31.4925)"><path
           d="m 0,0 c 0.006,-1.597 -1.355,-2.907 -2.987,-2.876 -1.6,0.03 -2.844,1.271 -2.841,2.834 0.003,1.606 1.361,2.926 2.978,2.895 C -1.312,2.824 -0.006,1.516 0,0"
           style="fill:#ffffff;fill-opacity:1;fill-rule:nonzero;stroke:none"
           id="path11" /></g><g
         id="g11"
         transform="translate(57.9818,12.5942)"><path
           d="M 0,0 C -2.575,0.03 -4.084,1.826 -4.057,4.83 -4.031,7.726 -2.515,9.449 0.022,9.466 2.641,9.483 4.097,7.784 4.085,4.722 4.074,1.617 2.648,-0.03 0,0 m 8.938,10.386 v 2.829 H 4.504 C 4.396,12.733 4.308,12.344 4.212,11.918 c -1.325,0.914 -2.757,1.455 -4.177,1.633 -0.236,0.03 -0.473,0.05 -0.708,0.059 -0.471,0.019 -0.939,-0.002 -1.398,-0.063 C -3.68,13.333 -5.191,12.633 -6.418,11.46 -7.5,10.427 -8.277,8.988 -8.698,7.411 -8.909,6.623 -9.031,5.801 -9.058,4.977 -9.066,4.703 -9.065,4.428 -9.052,4.154 c 0.075,-1.641 0.54,-3.241 1.444,-4.533 0.479,-0.684 1.102,-1.325 1.799,-1.879 0.696,-0.553 1.465,-1.02 2.234,-1.353 0.635,-0.275 1.275,-0.455 1.918,-0.543 0.321,-0.044 0.643,-0.066 0.965,-0.065 0.966,0.003 1.933,0.206 2.888,0.596 0.636,0.259 1.267,0.602 1.889,1.023 0,-0.725 0.002,-1.222 0,-1.718 C 4.082,-4.871 4.035,-5.359 3.94,-5.789 3.893,-6.004 3.833,-6.205 3.761,-6.391 3.402,-7.324 2.734,-7.908 1.705,-8.229 1.439,-8.312 1.175,-8.374 0.914,-8.416 0.654,-8.458 0.397,-8.48 0.144,-8.482 c -0.505,-0.005 -0.991,0.068 -1.447,0.215 -0.912,0.292 -1.702,0.876 -2.279,1.71 -0.227,0.328 -0.715,0.636 -1.104,0.664 -0.604,0.043 -1.21,0.05 -1.89,0.048 -0.68,-0.003 -1.434,-0.017 -2.333,-0.017 0.405,-0.787 0.712,-1.487 1.011,-2.111 0.3,-0.623 0.592,-1.172 0.966,-1.656 0.53,-0.686 1.221,-1.261 2.02,-1.716 0.2,-0.114 0.406,-0.221 0.619,-0.319 0.85,-0.396 1.795,-0.669 2.782,-0.813 1.729,-0.251 3.587,-0.104 5.293,0.488 3.286,1.14 5.126,3.857 5.149,7.732 0.03,4.881 0.007,9.762 0.007,14.643"
           style="fill:#ffffff;fill-opacity:1;fill-rule:nonzero;stroke:none"
           id="path12" /></g><g
         id="g12"
         transform="translate(107.4986,12.5375)"><path
           d="M 0,0 C -2.658,-0.03 -4.196,1.681 -4.194,4.664 -4.193,7.64 -2.652,9.422 -0.067,9.438 2.526,9.454 3.977,7.74 3.974,4.666 3.972,1.668 2.576,0.029 0,0 m 3.958,21.665 v -9.468 c -4.847,2.218 -8.856,1.579 -11.34,-1.723 -2.463,-3.275 -2.307,-8.912 0.332,-11.963 2.678,-3.096 6.753,-3.487 11.133,-1.068 0.364,-1.435 1.999,-1.794 4.674,-1.005 v 25.227 z"
           style="fill:#ffffff;fill-opacity:1;fill-rule:nonzero;stroke:none"
           id="path13" /></g><g
         id="g13"
         transform="translate(124.7091,12.1342)"><path
           d="M 0,0 C -0.612,0.113 -1.577,0.882 -1.548,1.294 -1.505,1.929 -0.86,2.842 -0.264,3.05 0.792,3.419 2.003,3.348 3.263,3.472 3.389,0.97 2.087,-0.386 0,0 M 8.135,8.398 C 7.933,11.7 5.791,13.538 2.476,13.885 -1.489,14.3 -4.673,12.664 -5.718,9.649 -5.894,9.141 -5.958,8.594 -6.145,7.742 c 1.52,0 2.838,-0.034 4.151,0.025 0.3,0.014 0.757,0.285 0.851,0.543 0.562,1.543 1.769,1.852 3.096,1.469 C 3.421,9.354 3.518,8.098 3.243,6.593 2.243,6.547 1.354,6.57 0.483,6.451 -0.83,6.272 -2.182,6.147 -3.423,5.723 -5.658,4.962 -6.616,3.247 -6.461,0.761 c 0.144,-2.299 1.392,-3.744 3.689,-4.323 2.232,-0.563 4.277,-0.163 6.128,1.215 0.521,-1.244 2.019,-1.492 4.835,-0.862 0,3.859 0.181,7.745 -0.056,11.607"
           style="fill:#ffffff;fill-opacity:1;fill-rule:nonzero;stroke:none"
           id="path14" /></g></g></g></svg>
