<?xml version="1.0" encoding="UTF-8" standalone="no"?>
<!-- Created with Inkscape (http://www.inkscape.org/) -->

<svg
   width="6.2707663mm"
   height="9.4457655mm"
   viewBox="0 0 6.2707663 9.4457658"
   version="1.1"
   id="svg1"
   xml:space="preserve"
   inkscape:version="1.3-dev (77bc73e, 2022-05-18)"
   sodipodi:docname="lightdash_notext.svg"
   inkscape:export-filename="lightdash_notext.png"
   inkscape:export-xdpi="357.64001"
   inkscape:export-ydpi="357.64001"
   xmlns:inkscape="http://www.inkscape.org/namespaces/inkscape"
   xmlns:sodipodi="http://sodipodi.sourceforge.net/DTD/sodipodi-0.dtd"
   xmlns="http://www.w3.org/2000/svg"
   xmlns:svg="http://www.w3.org/2000/svg"><sodipodi:namedview
     id="namedview1"
     pagecolor="#050f0d"
     bordercolor="#000000"
     borderopacity="0.25"
     inkscape:showpageshadow="2"
     inkscape:pageopacity="0.0"
     inkscape:pagecheckerboard="true"
     inkscape:deskcolor="#d1d1d1"
     inkscape:document-units="mm"
     showgrid="false"
     inkscape:zoom="10.484058"
     inkscape:cx="15.881255"
     inkscape:cy="22.176528"
     inkscape:window-width="1390"
     inkscape:window-height="1205"
     inkscape:window-x="0"
     inkscape:window-y="25"
     inkscape:window-maximized="0"
     inkscape:current-layer="layer1" /><defs
     id="defs1"><clipPath
       clipPathUnits="userSpaceOnUse"
       id="clipPath3"><path
         d="M 0,34.346 H 166.3 V 0 H 0 Z"
         id="path3" /></clipPath></defs><g
     inkscape:label="Layer 1"
     inkscape:groupmode="layer"
     id="layer1"
     transform="translate(-15.057508,-142.69828)"><g
       id="g3"
       clip-path="url(#clipPath3)"
       transform="matrix(0.35277777,0,0,-0.35277777,15.057508,154.55825)"><g
         id="g4"
         transform="translate(0,19.6274)"><path
           d="m 0,0 c 0.554,3.666 1.147,7.326 1.649,10.999 0.408,2.979 0.359,2.986 3.355,2.987 1.832,0 3.665,0.015 5.497,-0.005 1.826,-0.021 2.261,-0.626 1.726,-2.401 -0.541,-1.792 -1.114,-3.574 -1.737,-5.566 2.005,0 3.768,0.027 5.53,-0.008 1.707,-0.033 2.204,-0.873 1.337,-2.361 -3.017,-5.177 -6.048,-10.346 -9.16,-15.467 -0.307,-0.504 -1.203,-0.65 -1.826,-0.962 -0.225,0.664 -0.748,1.388 -0.627,1.982 0.619,3.03 1.403,6.026 2.2,9.325 -2.038,0 -3.909,-0.108 -5.756,0.052 C 1.433,-1.359 0.728,-0.715 0,-0.333 0,-0.222 0,-0.111 0,0"
           style="fill:#ffffff;fill-opacity:1;fill-rule:nonzero;stroke:none"
           id="path4" /></g><g
         id="g5"
         transform="translate(74.2367,24.481)" /><g
         id="g6"
         transform="translate(150.4721,34.2799)" /><g
         id="g7"
         transform="translate(24.8176,8.9474)" /><g
         id="g8"
         transform="translate(143.7277,20.3041)" /><g
         id="g9"
         transform="translate(97.8206,25.6816)" /><g
         id="g10"
         transform="translate(47.6078,31.4925)" /><g
         id="g11"
         transform="translate(57.9818,12.5942)" /><g
         id="g12"
         transform="translate(107.4986,12.5375)" /><g
         id="g13"
         transform="translate(124.7091,12.1342)" /></g></g></svg>
