<?xml version="1.0" encoding="UTF-8" standalone="no"?>
<!-- Created with Inkscape (http://www.inkscape.org/) -->

<svg
   width="400mm"
   height="420mm"
   viewBox="0 0 400 420"
   version="1.1"
   id="svg1"
   xml:space="preserve"
   inkscape:version="1.3-dev (77bc73e, 2022-05-18)"
   sodipodi:docname="logo-header.svg"
   inkscape:export-filename="logo-header.png"
   inkscape:export-xdpi="96"
   inkscape:export-ydpi="96"
   xmlns:inkscape="http://www.inkscape.org/namespaces/inkscape"
   xmlns:sodipodi="http://sodipodi.sourceforge.net/DTD/sodipodi-0.dtd"
   xmlns="http://www.w3.org/2000/svg"
   xmlns:svg="http://www.w3.org/2000/svg"><sodipodi:namedview
     id="namedview1"
     pagecolor="#ffffff"
     bordercolor="#000000"
     borderopacity="0.25"
     inkscape:showpageshadow="2"
     inkscape:pageopacity="0.0"
     inkscape:pagecheckerboard="true"
     inkscape:deskcolor="#d1d1d1"
     inkscape:document-units="mm"
     showgrid="false"
     inkscape:zoom="0.41440526"
     inkscape:cx="719.10284"
     inkscape:cy="1019.5334"
     inkscape:window-width="1309"
     inkscape:window-height="675"
     inkscape:window-x="0"
     inkscape:window-y="38"
     inkscape:window-maximized="0"
     inkscape:current-layer="svg1"
     showguides="false"><sodipodi:guide
       position="238.77595,399.99267"
       orientation="0,-1"
       id="guide5"
       inkscape:locked="false" /><sodipodi:guide
       position="184.51644,39.474742"
       orientation="0,-1"
       id="guide6"
       inkscape:locked="false" /></sodipodi:namedview><defs
     id="defs1"><clipPath
       clipPathUnits="userSpaceOnUse"
       id="clipPath3"><path
         d="M 172.141,388.201 0,289.553 V 83.242 L 172.141,0 344.281,81.476 v 207.066 z"
         id="path3-4" /></clipPath><linearGradient
       x1="0"
       y1="0"
       x2="1"
       y2="0"
       gradientUnits="userSpaceOnUse"
       gradientTransform="matrix(79.501558,-225.26396,-216.72343,-82.634518,119.8021,262.14087)"
       spreadMethod="pad"
       id="linearGradient6"><stop
         style="stop-opacity:1;stop-color:#009363"
         offset="0"
         id="stop5" /><stop
         style="stop-opacity:1;stop-color:#50b95e"
         offset="1"
         id="stop6" /></linearGradient></defs><g
     inkscape:label="Layer 1"
     inkscape:groupmode="layer"
     id="layer1"
     transform="translate(-29.821805,-86.830039)" /><path
     d="M 200.00043,15.210398 52.45249,103.09703 v 183.8049 l 147.54794,74.1613 147.54708,-72.58795 V 103.99775 Z"
     style="fill:url(#linearGradient6);stroke:none;stroke-width:0.873857"
     id="path6"
     clip-path="url(#clipPath11)" /><g
     id="g1"
     inkscape:label="pasted-image2"
     transform="matrix(0.69237474,0,0,-0.71965952,80.814197,328.30939)"><g
       id="g2"
       transform="translate(126.9396,361.5507)"><path
         d="m 0,0 -21.361,-13.201 v -43.573 l 42.859,25.666 V -59.973 L 1.171,-71.958 -20.189,-85.159 v -43.573 l 41.687,24.966 v -28.844 l -19.891,-11.728 -21.36,-13.201 v -43.572 l 41.251,24.704 v -119.056 l -103.236,50.019 v 156.231 l 13.62,8.157 6.637,3.975 -0.1,43.766 -20.157,-12 v 0.012 l 20.189,12.027 -20.189,-11.955 v 0.097 l -40.395,-24.017 -4.807,-2.846 v -0.012 -44.273 -162.027 l 172.142,-83.242 172.14,81.476 v 207.066 l -45.201,27.293 v -0.18 l -20.287,12.181 0.029,-43.126 20.258,-12.132 V -245.488 L 66.699,-295.721 v 121.338 l 44.329,-26.337 v 43.806 l -44.329,27.076 v 27.575 l 43.892,-26.076 v 43.805 l -43.892,26.81 v 26.723 l 42.721,-25.38 v 43.804 L 45.202,26.65 Z"
         style="fill:#009161;fill-opacity:1;fill-rule:nonzero;stroke:none"
         id="path2" /></g><g
       id="g3"
       transform="translate(126.9396,361.5507)"><path
         d="m 0,0 -21.361,-13.201 v -43.573 l 42.859,25.666 V -59.973 L 1.171,-71.958 -20.189,-85.159 v -43.573 l 41.687,24.966 v -28.844 l -19.891,-11.728 -21.36,-13.201 v -43.572 l 41.251,24.704 v -119.056 l -103.236,50.019 v 156.231 l 13.62,8.157 6.637,3.975 -0.1,43.766 -20.157,-12 v 0.012 l 20.189,12.027 -20.189,-11.955 v 0.097 l -40.395,-24.017 -4.807,-2.846 v -0.012 -44.273 -162.027 l 172.142,-83.242 172.14,81.476 v 207.066 l -45.201,27.293 v -0.18 l -20.287,12.181 0.029,-43.126 20.258,-12.132 V -245.488 L 66.699,-295.721 v 121.338 l 44.329,-26.337 v 43.806 l -44.329,27.076 v 27.575 l 43.892,-26.076 v 43.805 l -43.892,26.81 v 26.723 l 42.721,-25.38 v 43.804 L 45.202,26.65 Z"
         style="fill:#ffffff;fill-opacity:1;fill-rule:nonzero;stroke:none"
         id="path3" /></g><g
       id="g4"
       transform="translate(172.1412,456.201)"><path
         d="m 0,0 -45.202,-26.65 -21.36,-13.201 v -43.574 l 65.46,39.202 65.321,-37.809 v 43.804 z"
         style="fill:#009161;fill-opacity:1;fill-rule:nonzero;stroke:none"
         id="path4" /></g><g
       id="g5"
       transform="translate(172.1412,456.201)"><path
         d="m 0,0 -45.202,-26.65 -21.36,-13.201 v -43.574 l 65.46,39.202 65.321,-37.809 v 43.804 z"
         style="fill:#ffffff;fill-opacity:1;fill-rule:nonzero;stroke:none"
         id="path5" /></g></g></svg>
