<?xml version="1.0" encoding="UTF-8" standalone="no"?>
<!-- Created with Inkscape (http://www.inkscape.org/) -->

<svg
   width="221.83099mm"
   height="58.544788mm"
   viewBox="0 0 221.83099 58.54479"
   version="1.1"
   id="svg1"
   xml:space="preserve"
   inkscape:version="1.3-dev (77bc73e, 2022-05-18)"
   sodipodi:docname="inovex_logo_banner.svg"
   inkscape:export-filename="inovex_logo_banner.png"
   inkscape:export-xdpi="42.588329"
   inkscape:export-ydpi="42.588329"
   xmlns:inkscape="http://www.inkscape.org/namespaces/inkscape"
   xmlns:sodipodi="http://sodipodi.sourceforge.net/DTD/sodipodi-0.dtd"
   xmlns="http://www.w3.org/2000/svg"
   xmlns:svg="http://www.w3.org/2000/svg"><sodipodi:namedview
     id="namedview1"
     pagecolor="#010000"
     bordercolor="#000000"
     borderopacity="0.25"
     inkscape:showpageshadow="2"
     inkscape:pageopacity="0.0"
     inkscape:pagecheckerboard="true"
     inkscape:deskcolor="#d1d1d1"
     inkscape:document-units="mm"
     showgrid="false"
     inkscape:zoom="0.914906"
     inkscape:cx="330.63506"
     inkscape:cy="307.68188"
     inkscape:window-width="1390"
     inkscape:window-height="1205"
     inkscape:window-x="0"
     inkscape:window-y="25"
     inkscape:window-maximized="0"
     inkscape:current-layer="layer1" /><defs
     id="defs1"><clipPath
       clipPathUnits="userSpaceOnUse"
       id="clipPath3"><path
         d="M 0,293.221 H 422.651 V 0 H 0 Z"
         id="path3" /></clipPath><clipPath
       clipPathUnits="userSpaceOnUse"
       id="clipPath13"><path
         d="m 192.824,209.912 h 98.288 v -82.645 h -98.288 z"
         id="path13" /></clipPath><clipPath
       clipPathUnits="userSpaceOnUse"
       id="clipPath14"><path
         d="m 192.824,183.794 15.012,-56.491 c 1.75,-0.188 3.565,0.366 4.901,1.713 l 76.695,77.31 c 0.998,1.006 1.54,2.279 1.68,3.586 l -56.489,-15.011 z"
         id="path14" /></clipPath><linearGradient
       x1="0"
       y1="0"
       x2="1"
       y2="0"
       gradientUnits="userSpaceOnUse"
       gradientTransform="matrix(-65.221085,-18.508688,-18.508688,65.221085,264.12625,173.41966)"
       spreadMethod="pad"
       id="linearGradient16"><stop
         style="stop-opacity:1;stop-color:#ffffff"
         offset="0"
         id="stop14" /><stop
         style="stop-opacity:1;stop-color:#ffffff"
         offset="0.308622"
         id="stop15" /><stop
         style="stop-opacity:1;stop-color:#24209d"
         offset="1"
         id="stop16" /></linearGradient><clipPath
       clipPathUnits="userSpaceOnUse"
       id="clipPath24"><path
         d="m 125.193,225.592 h 82.643 v -98.289 h -82.643 z"
         id="path24" /></clipPath><clipPath
       clipPathUnits="userSpaceOnUse"
       id="clipPath25"><path
         d="m 207.836,127.303 -15.012,56.491 -11.107,41.798 -56.488,-15.011 c -0.189,-1.751 0.365,-3.566 1.712,-4.903 l 12.669,-12.567 64.642,-64.128 c 1.005,-0.998 2.277,-1.54 3.584,-1.68"
         id="path25" /></clipPath><linearGradient
       x1="0"
       y1="0"
       x2="1"
       y2="0"
       gradientUnits="userSpaceOnUse"
       gradientTransform="matrix(-15.69771,61.628048,61.628048,15.69771,169.80551,155.30336)"
       spreadMethod="pad"
       id="linearGradient29"><stop
         style="stop-opacity:1;stop-color:#ffffff"
         offset="0"
         id="stop25" /><stop
         style="stop-opacity:1;stop-color:#ffffff"
         offset="0.308622"
         id="stop26" /><stop
         style="stop-opacity:1;stop-color:#ffffff"
         offset="0.43941098"
         id="stop27" /><stop
         style="stop-opacity:1;stop-color:#24209d"
         offset="0.968771"
         id="stop28" /><stop
         style="stop-opacity:1;stop-color:#24209d"
         offset="1"
         id="stop29" /></linearGradient><clipPath
       clipPathUnits="userSpaceOnUse"
       id="clipPath37"><path
         d="m 125.229,293.221 h 98.287 v -82.64 h -98.287 z"
         id="path37" /></clipPath><clipPath
       clipPathUnits="userSpaceOnUse"
       id="clipPath38"><path
         d="m 181.717,225.592 41.799,11.107 -15.011,56.487 c -1.75,0.188 -3.565,-0.366 -4.902,-1.713 l -30.274,-30.517 -46.422,-46.794 c -0.997,-1.005 -1.538,-2.276 -1.678,-3.581 z"
         id="path38" /></clipPath><linearGradient
       x1="0"
       y1="0"
       x2="1"
       y2="0"
       gradientUnits="userSpaceOnUse"
       gradientTransform="matrix(62.209446,16.279108,16.279108,-62.209446,167.633,252.29207)"
       spreadMethod="pad"
       id="linearGradient42"><stop
         style="stop-opacity:1;stop-color:#ffffff"
         offset="0"
         id="stop38" /><stop
         style="stop-opacity:1;stop-color:#ffffff"
         offset="0.308622"
         id="stop39" /><stop
         style="stop-opacity:1;stop-color:#ffffff"
         offset="0.33419504"
         id="stop40" /><stop
         style="stop-opacity:1;stop-color:#096a34"
         offset="0.899345"
         id="stop41" /><stop
         style="stop-opacity:1;stop-color:#096a34"
         offset="1"
         id="stop42" /></linearGradient><clipPath
       clipPathUnits="userSpaceOnUse"
       id="clipPath50"><path
         d="m 208.505,293.186 h 82.642 v -98.285 h -82.642 z"
         id="path50" /></clipPath><clipPath
       clipPathUnits="userSpaceOnUse"
       id="clipPath51"><path
         d="m 289.398,214.811 -77.31,76.696 c -1.005,0.997 -2.276,1.539 -3.583,1.679 l 15.011,-56.487 11.107,-41.798 56.489,15.011 c 0.187,1.75 -0.367,3.564 -1.714,4.899"
         id="path51" /></clipPath><linearGradient
       x1="0"
       y1="0"
       x2="1"
       y2="0"
       gradientUnits="userSpaceOnUse"
       gradientTransform="matrix(18.604694,-70.348999,-70.348999,-18.604694,243.87747,274.77222)"
       spreadMethod="pad"
       id="linearGradient54"><stop
         style="stop-opacity:1;stop-color:#ffffff"
         offset="0"
         id="stop51" /><stop
         style="stop-opacity:1;stop-color:#ffffff"
         offset="0.428061"
         id="stop52" /><stop
         style="stop-opacity:1;stop-color:#ffffff"
         offset="0.66136617"
         id="stop53" /><stop
         style="stop-opacity:1;stop-color:#24209d"
         offset="1"
         id="stop54" /></linearGradient></defs><g
     inkscape:label="Layer 1"
     inkscape:groupmode="layer"
     id="layer1"
     transform="translate(-56.950292,-71.04101)"><g
       id="g3"
       clip-path="url(#clipPath3)"
       transform="matrix(0.35277777,0,0,-0.35277777,12.784992,174.48286)"><g
         id="g4"
         transform="translate(12.5655,69.369)" /><g
         id="g5"
         transform="translate(110.6907,40.2495)" /><g
         id="g6"
         transform="translate(183.4055,35.0725)" /><g
         id="g7"
         transform="translate(272.76,67.2363)" /><g
         id="g8"
         transform="translate(286.4513,34.0797)" /><g
         id="g9"
         transform="translate(406.8032,1.8422)" /><g
         id="g10"
         transform="translate(22.8687,57.938)" /><g
         id="g11"
         transform="translate(192.8244,183.7936)"><path
           d="m 0,0 15.011,-56.491 c 1.751,-0.187 3.565,0.366 4.902,1.714 l 76.695,77.31 c 0.998,1.006 1.539,2.278 1.679,3.585 L 41.798,11.107 Z"
           style="fill:#424bff;fill-opacity:1;fill-rule:nonzero;stroke:none"
           id="path11" /></g><g
         id="g12"><g
           id="g13" /><g
           id="g21"><g
             clip-path="url(#clipPath13)"
             opacity="0.300003"
             id="g20"><g
               id="g19"><g
                 clip-path="url(#clipPath14)"
                 id="g18"><g
                   id="g17"><g
                     id="g16"><path
                       d="m 192.824,183.794 15.012,-56.491 c 1.75,-0.188 3.565,0.366 4.901,1.713 l 76.695,77.31 c 0.998,1.006 1.54,2.279 1.68,3.586 l -56.489,-15.011 z"
                       style="fill:url(#linearGradient16);stroke:none"
                       id="path16" /></g></g></g></g></g></g></g><g
         id="g22"
         transform="translate(207.8356,127.3029)"><path
           d="M 0,0 -15.011,56.491 -26.118,98.289 -82.607,83.278 c -0.188,-1.751 0.366,-3.566 1.713,-4.903 L -68.226,65.808 -3.584,1.68 C -2.578,0.682 -1.307,0.141 0,0"
           style="fill:#28a4a4;fill-opacity:1;fill-rule:nonzero;stroke:none"
           id="path22" /></g><g
         id="g23"><g
           id="g24" /><g
           id="g34"><g
             clip-path="url(#clipPath24)"
             opacity="0.149994"
             id="g33"><g
               id="g32"><g
                 clip-path="url(#clipPath25)"
                 id="g31"><g
                   id="g30"><g
                     id="g29"><path
                       d="m 207.836,127.303 -15.012,56.491 -11.107,41.798 -56.488,-15.011 c -0.189,-1.751 0.365,-3.566 1.712,-4.903 l 12.669,-12.567 64.642,-64.128 c 1.005,-0.998 2.277,-1.54 3.584,-1.68"
                       style="fill:url(#linearGradient29);stroke:none"
                       id="path29" /></g></g></g></g></g></g></g><g
         id="g35"
         transform="translate(181.7173,225.5919)"><path
           d="m 0,0 41.798,11.107 -15.01,56.487 c -1.751,0.188 -3.566,-0.366 -4.902,-1.713 L -8.388,35.364 -54.81,-11.43 c -0.997,-1.005 -1.538,-2.276 -1.679,-3.581 z"
           style="fill:#80f979;fill-opacity:1;fill-rule:nonzero;stroke:none"
           id="path35" /></g><g
         id="g36"><g
           id="g37" /><g
           id="g47"><g
             clip-path="url(#clipPath37)"
             opacity="0.320007"
             id="g46"><g
               id="g45"><g
                 clip-path="url(#clipPath38)"
                 id="g44"><g
                   id="g43"><g
                     id="g42"><path
                       d="m 181.717,225.592 41.799,11.107 -15.011,56.487 c -1.75,0.188 -3.565,-0.366 -4.902,-1.713 l -30.274,-30.517 -46.422,-46.794 c -0.997,-1.005 -1.538,-2.276 -1.678,-3.581 z"
                       style="fill:url(#linearGradient42);stroke:none"
                       id="path42" /></g></g></g></g></g></g></g><g
         id="g48"
         transform="translate(289.3984,214.8112)"><path
           d="m 0,0 -77.31,76.696 c -1.005,0.997 -2.277,1.538 -3.583,1.678 l 15.01,-56.486 11.107,-41.799 56.489,15.012 C 1.901,-3.149 1.347,-1.335 0,0"
           style="fill:#31adeb;fill-opacity:1;fill-rule:nonzero;stroke:none"
           id="path48" /></g><g
         id="g49"><g
           id="g50" /><g
           id="g59"><g
             clip-path="url(#clipPath50)"
             opacity="0.25"
             id="g58"><g
               id="g57"><g
                 clip-path="url(#clipPath51)"
                 id="g56"><g
                   id="g55"><g
                     id="g54"><path
                       d="m 289.398,214.811 -77.31,76.696 c -1.005,0.997 -2.276,1.539 -3.583,1.679 l 15.011,-56.487 11.107,-41.798 56.489,15.011 c 0.187,1.75 -0.367,3.564 -1.714,4.899"
                       style="fill:url(#linearGradient54);stroke:none"
                       id="path54" /></g></g></g></g></g></g></g></g><g
       id="g1"
       transform="translate(0,-1.3819393)"><path
         d="m 134.11186,94.64111 h 3.83187 v 23.49218 c 0,0.38982 -0.31609,0.70555 -0.70591,0.70555 h -3.12596 c -0.38982,0 -0.70591,-0.31573 -0.70591,-0.70555 V 95.346666 c 0,-0.38982 0.31609,-0.705556 0.70591,-0.705556 m -1.50954,-7.487355 c 0,-1.598084 1.32363,-2.876198 3.07235,-2.876198 1.74907,0 3.07269,1.232606 3.07269,2.784828 0,1.643592 -1.27635,2.922058 -3.07269,2.922058 -1.74872,0 -3.07235,-1.232958 -3.07235,-2.830688"
         style="fill:#ffffff;fill-opacity:1;fill-rule:nonzero;stroke:none;stroke-width:0.352778"
         id="path4" /><path
         d="m 168.72825,104.91382 v 13.21964 c 0,0.38947 -0.31609,0.70556 -0.70591,0.70556 h -3.12596 c -0.38982,0 -0.70591,-0.31609 -0.70591,-0.70556 v -12.71763 c 0,-4.74804 -2.45816,-7.076726 -6.75958,-7.076726 -4.82141,0 -7.94138,2.785176 -7.94138,8.035576 v 11.75878 c 0,0.38947 -0.31608,0.70556 -0.7059,0.70556 h -3.12597 c -0.38982,0 -0.70591,-0.31609 -0.70591,-0.70556 V 95.34649 c 0,-0.389467 0.31609,-0.705556 0.70591,-0.705556 h 2.93688 c 0.38982,0 0.70591,0.316089 0.70591,0.705556 v 2.947105 c 1.84361,-2.465211 5.05777,-3.880908 9.02864,-3.880908 6.09776,0 10.39918,3.378553 10.39918,10.501133"
         style="fill:#ffffff;fill-opacity:1;fill-rule:nonzero;stroke:none;stroke-width:0.352778"
         id="path5" /><path
         d="m 194.38041,106.74015 c 0,-5.15902 -3.59234,-8.492062 -8.41375,-8.492062 -4.82177,0 -8.46137,3.333042 -8.46137,8.492062 0,5.15903 3.6396,8.53758 8.46137,8.53758 4.82141,0 8.41375,-3.37855 8.41375,-8.53758 m -21.46018,0 c 0,-7.213596 5.5305,-12.327462 13.04643,-12.327462 7.51558,0 12.9988,5.113866 12.9988,12.327462 0,7.21325 -5.48322,12.37298 -12.9988,12.37298 -7.51593,0 -13.04643,-5.15973 -13.04643,-12.37298"
         style="fill:#ffffff;fill-opacity:1;fill-rule:nonzero;stroke:none;stroke-width:0.352778"
         id="path6" /><path
         d="m 225.90269,95.39348 -10.72444,23.03745 c -0.11572,0.24871 -0.36548,0.40781 -0.63994,0.40781 h -3.85798 c -0.27481,0 -0.52423,-0.1591 -0.64029,-0.40781 L 199.31559,95.39348 c -0.16298,-0.350661 0.0931,-0.752475 0.48013,-0.752475 h 3.57082 c 0.27658,0 0.52776,0.161572 0.64241,0.413456 l 8.6487,18.990729 8.84132,-18.996021 c 0.11571,-0.249061 0.36547,-0.408164 0.63993,-0.408164 h 3.28366 c 0.387,0 0.64347,0.401814 0.48013,0.752475"
         style="fill:#ffffff;fill-opacity:1;fill-rule:nonzero;stroke:none;stroke-width:0.352778"
         id="path7" /><path
         d="m 230.73268,107.09039 0.0332,0.45544 14.95884,-3.85445 c 0.44203,-0.11395 0.69391,-0.59549 0.51258,-1.01424 -1.27423,-2.945693 -4.23615,-4.820002 -7.96149,-4.55189 -4.76179,0.342194 -7.9128,3.91054 -7.54309,8.96514 m 17.36372,5.17737 1.67746,1.6704 c 0.26353,0.26247 0.27728,0.68368 0.0353,0.96591 -2.05493,2.39712 -5.22711,3.82481 -9.10484,4.10351 -8.06168,0.57961 -13.81302,-4.17971 -14.33936,-11.37426 -0.52317,-7.1494 4.38044,-12.674604 11.64096,-13.196715 6.63222,-0.476603 12.16413,3.52037 13.09829,10.320165 0.0494,0.35807 -0.16863,0.69885 -0.51824,0.79092 l -18.98367,5.00486 c 1.51624,3.23286 4.76779,4.92161 8.96373,4.61998 2.65853,-0.19121 4.86904,-1.14547 6.52286,-2.88925 0.2727,-0.28716 0.72707,-0.29492 1.00753,-0.0155"
         style="fill:#ffffff;fill-opacity:1;fill-rule:nonzero;stroke:none;stroke-width:0.352778"
         id="path8" /><path
         d="m 273.19015,118.46307 -7.99465,-8.89247 -8.10401,8.89776 c -0.21484,0.23601 -0.51929,0.37042 -0.83855,0.37042 h -4.1201 c -0.46108,0 -0.70202,-0.54787 -0.38981,-0.88724 l 10.56604,-11.48539 -10.02524,-10.938576 c -0.31115,-0.339372 -0.0702,-0.88653 0.39018,-0.88653 h 4.12397 c 0.31891,0 0.623,0.134408 0.83785,0.370063 l 7.614,8.350603 7.55932,-8.34778 c 0.21519,-0.23742 0.52035,-0.372886 0.84067,-0.372886 h 4.00826 c 0.46143,0 0.70203,0.548569 0.38982,0.887588 l -10.07498,10.937518 10.66553,11.48363 c 0.31468,0.33866 0.0744,0.889 -0.38806,0.889 h -4.21675 c -0.32173,0 -0.6283,-0.13653 -0.84349,-0.37571"
         style="fill:#ffffff;fill-opacity:1;fill-rule:nonzero;stroke:none;stroke-width:0.352778"
         id="path9" /><path
         d="m 137.7466,98.673715 h -7.36177 c -0.38982,0 -0.7059,-0.316089 -0.7059,-0.705908 v -2.606675 c 0,-0.38982 0.31608,-0.705909 0.7059,-0.705909 h 7.36177 z"
         style="fill:#ffffff;fill-opacity:1;fill-rule:nonzero;stroke:none;stroke-width:0.352778"
         id="path10" /></g></g></svg>
